<svg width="31" height="29" viewBox="0 0 31 29" fill="none" xmlns="http://www.w3.org/2000/svg">
<rect width="31" height="29" fill="white"/>
<path d="M17.4639 4.712C16.5519 4.712 15.6399 5.084 14.7279 5.828C13.8399 6.572 13.0239 7.592 12.2799 8.888C11.5359 10.184 10.9359 11.66 10.4799 13.316C10.0479 14.972 9.83194 16.712 9.83194 18.536C9.83194 19.76 10.0599 20.648 10.5159 21.2C10.9959 21.728 11.6079 21.992 12.3519 21.992C13.2159 21.992 14.1039 21.728 15.0159 21.2C15.9279 20.672 16.8399 19.736 17.7519 18.392L18.4719 18.68C18.0159 19.472 17.4159 20.24 16.6719 20.984C15.9279 21.728 15.0879 22.34 14.1519 22.82C13.2399 23.276 12.2679 23.504 11.2359 23.504C9.79594 23.504 8.64394 23.06 7.77994 22.172C6.91594 21.284 6.48394 19.964 6.48394 18.212C6.48394 17.108 6.63994 15.92 6.95194 14.648C7.28794 13.352 7.75594 12.08 8.35594 10.832C8.97994 9.56 9.73594 8.42 10.6239 7.412C11.5119 6.38 12.5199 5.552 13.6479 4.928C14.7759 4.304 16.0119 3.992 17.3559 3.992C18.4119 3.992 19.3239 4.268 20.0919 4.82C20.8599 5.348 21.2439 6.092 21.2439 7.052C21.2439 7.508 21.1359 7.964 20.9199 8.42C20.7279 8.852 20.4399 9.212 20.0559 9.5C19.6719 9.788 19.2159 9.932 18.6879 9.932C18.1839 9.932 17.8119 9.8 17.5719 9.536C17.3319 9.248 17.2119 8.912 17.2119 8.528C17.2119 7.832 17.4879 7.244 18.0399 6.764C18.5919 6.26 19.2159 5.948 19.9119 5.828C19.6719 5.492 19.3599 5.228 18.9759 5.036C18.5919 4.82 18.0879 4.712 17.4639 4.712ZM21.339 21.668C21.339 20.948 21.615 20.312 22.167 19.76C22.719 19.184 23.331 18.896 24.003 18.896C24.555 18.896 24.999 19.076 25.335 19.436C25.671 19.796 25.839 20.24 25.839 20.768C25.839 21.248 25.707 21.704 25.443 22.136C25.203 22.544 24.879 22.868 24.471 23.108C24.063 23.372 23.619 23.504 23.139 23.504C22.611 23.504 22.179 23.336 21.843 23C21.507 22.64 21.339 22.196 21.339 21.668Z" fill="black"/>
</svg>
